<svg xmlns="http://www.w3.org/2000/svg" viewBox="0 0 221.29 201.89"><defs><style>.cls-1{fill:#ffc400;}.cls-2{fill:#fff;}.cls-3{fill:#ffab00;}.cls-4{fill:#ff991f;}.cls-5{fill:#091e42;opacity:0.15;}.cls-6{fill:#ff8b00;}.cls-7{fill:#0065ff;}.cls-8{fill:#172b4d;}</style></defs><title>Bullseye</title><g id="Layer_2" data-name="Layer 2"><g id="Objects"><path class="cls-1" d="M135.45,163.44A74.95,74.95,0,1,1,153.76,55.58L168.9,44.84c.18-.13.35-.28.52-.41,1,1.34,2,2.72,2.94,4.12-.19.12-.38.22-.56.35L156.66,59.65A74.4,74.4,0,0,1,168.4,111l18.28,3.1c.23,0,.46.06.69.08-.11.84-.24,1.67-.38,2.49a94.26,94.26,0,1,0-40.44,62.45c-.12-.19-.23-.38-.36-.56Z"/><path class="cls-1" d="M187,116.72c-.14.83-.29,1.66-.45,2.48-.23,0-.45-.12-.68-.15l-18.26-3.11a75.05,75.05,0,0,1-28.07,44.6l10.74,15.14c.13.18.27.35.41.52-1.35,1-2.72,2-4.12,2.94A94.34,94.34,0,0,0,187,116.72Z"/><path class="cls-2" d="M94.16,156.67a55.73,55.73,0,1,1,43.93-90l15.67-11.13a74.94,74.94,0,1,0-18.31,107.86l-11.13-15.68A55.33,55.33,0,0,1,94.16,156.67Z"/><path class="cls-2" d="M128.39,144.87l11.13,15.67a75.05,75.05,0,0,0,28.07-44.6l-19-3.22A55.81,55.81,0,0,1,128.39,144.87Z"/><path class="cls-2" d="M149.89,100.94a55.53,55.53,0,0,1-.44,6.86l19,3.22a74.4,74.4,0,0,0-11.74-51.37L141,70.77A55.39,55.39,0,0,1,149.89,100.94Z"/><path class="cls-3" d="M117.26,129.19l11.13,15.68a55.81,55.81,0,0,0,20.23-32.15l-19-3.22A36.6,36.6,0,0,1,117.26,129.19Z"/><path class="cls-3" d="M141,70.77,125.3,81.9a36.25,36.25,0,0,1,5.37,19c0,1.23-.06,2.44-.18,3.64l19,3.22a55.21,55.21,0,0,0-8.47-37Z"/><path class="cls-3" d="M94.16,137.46a36.52,36.52,0,1,1,28.25-59.63l15.68-11.12a55.74,55.74,0,1,0-13.77,81.05l-11.13-15.67A36.28,36.28,0,0,1,94.16,137.46Z"/><path class="cls-2" d="M111.46,100.94c0,.14,0,.27,0,.4l19.05,3.24c.12-1.2.18-2.41.18-3.64a36.25,36.25,0,0,0-5.37-19L109.56,93.08A17.15,17.15,0,0,1,111.46,100.94Z"/><path class="cls-2" d="M106.09,113.45l11.17,15.74a36.6,36.6,0,0,0,12.39-19.69l-19-3.23A17.31,17.31,0,0,1,106.09,113.45Z"/><path class="cls-2" d="M94.16,118.24A17.31,17.31,0,1,1,106.67,89l15.74-11.17a36.52,36.52,0,1,0-9.22,54.26L102,116.34A17.18,17.18,0,0,1,94.16,118.24Z"/><path class="cls-4" d="M111.44,101.34c0-.13,0-.26,0-.4a17.15,17.15,0,0,0-1.9-7.86l-9,6.41Z"/><path class="cls-4" d="M94.16,83.63A17.31,17.31,0,1,0,102,116.34l-9.64-13.58a3.31,3.31,0,0,1-.3-.34,2.42,2.42,0,0,1-.34-.73,2.56,2.56,0,0,1-.1-1.17,2.38,2.38,0,0,1,.28-.76,2.34,2.34,0,0,1,.76-.9,2.46,2.46,0,0,1,.45-.25L106.67,89A17.27,17.27,0,0,0,94.16,83.63Z"/><path class="cls-4" d="M106.09,113.45a17.31,17.31,0,0,0,4.52-7.18l-10.93-1.86Z"/><path class="cls-5" d="M187,116.69v0Z"/><polygon class="cls-5" points="146.55 179.14 146.55 179.14 146.55 179.14 146.55 179.14"/><path class="cls-4" d="M171.8,48.9c.18-.13.37-.23.56-.35-1-1.4-1.93-2.78-2.94-4.12-.17.13-.34.28-.52.41L153.76,55.58q1.52,2,2.9,4.07Z"/><path class="cls-3" d="M171.8,48.9c.18-.13.37-.23.56-.35-1-1.4-1.93-2.78-2.94-4.12-.17.13-.34.28-.52.41L153.76,55.58q1.52,2,2.9,4.07Z"/><path class="cls-4" d="M150.26,175.68l-10.74-15.14c-1.33,1-2.68,2-4.07,2.9l10.74,15.14c.13.18.24.37.36.56h0c1.4-.95,2.77-1.92,4.12-2.94C150.53,176,150.39,175.86,150.26,175.68Z"/><path class="cls-3" d="M150.26,175.68l-10.74-15.14c-1.33,1-2.68,2-4.07,2.9l10.74,15.14c.13.18.24.37.36.56h0c1.4-.95,2.77-1.92,4.12-2.94C150.53,176,150.39,175.86,150.26,175.68Z"/><path class="cls-4" d="M186.68,114.12,168.4,111c-.22,1.65-.48,3.3-.81,4.92l18.26,3.11c.23,0,.45.1.68.15.16-.82.31-1.65.45-2.48v0c.14-.82.27-1.65.38-2.49C187.14,114.18,186.91,114.16,186.68,114.12Z"/><path class="cls-3" d="M186.68,114.12,168.4,111c-.22,1.65-.48,3.3-.81,4.92l18.26,3.11c.23,0,.45.1.68.15.16-.82.31-1.65.45-2.48v0c.14-.82.27-1.65.38-2.49C187.14,114.18,186.91,114.16,186.68,114.12Z"/><path class="cls-2" d="M124.32,147.76l11.13,15.68c1.39-.92,2.74-1.89,4.07-2.9l-11.13-15.67C127.08,145.89,125.72,146.86,124.32,147.76Z"/><path class="cls-5" d="M124.32,147.76l11.13,15.68c1.39-.92,2.74-1.89,4.07-2.9l-11.13-15.67C127.08,145.89,125.72,146.86,124.32,147.76Z"/><path class="cls-2" d="M141,70.77l15.68-11.12q-1.38-2.09-2.9-4.07L138.09,66.71C139.11,68,140.08,69.37,141,70.77Z"/><path class="cls-5" d="M141,70.77l15.68-11.12q-1.38-2.09-2.9-4.07L138.09,66.71C139.11,68,140.08,69.37,141,70.77Z"/><path class="cls-2" d="M149.45,107.8c-.21,1.66-.48,3.31-.83,4.92l19,3.22c.33-1.62.59-3.27.81-4.92Z"/><path class="cls-5" d="M149.45,107.8c-.21,1.66-.48,3.31-.83,4.92l19,3.22c.33-1.62.59-3.27.81-4.92Z"/><path class="cls-4" d="M129.65,109.5l19,3.22c.35-1.61.62-3.26.83-4.92l-19-3.22A36.1,36.1,0,0,1,129.65,109.5Z"/><path class="cls-4" d="M129.65,109.5l19,3.22c.35-1.61.62-3.26.83-4.92l-19-3.22A36.1,36.1,0,0,1,129.65,109.5Z"/><path class="cls-4" d="M113.19,132.09l11.13,15.67c1.4-.9,2.76-1.87,4.07-2.89l-11.13-15.68A37,37,0,0,1,113.19,132.09Z"/><path class="cls-4" d="M113.19,132.09l11.13,15.67c1.4-.9,2.76-1.87,4.07-2.89l-11.13-15.68A37,37,0,0,1,113.19,132.09Z"/><path class="cls-4" d="M125.3,81.9,141,70.77c-.9-1.4-1.87-2.75-2.89-4.06L122.41,77.83A37.45,37.45,0,0,1,125.3,81.9Z"/><path class="cls-4" d="M125.3,81.9,141,70.77c-.9-1.4-1.87-2.75-2.89-4.06L122.41,77.83A37.45,37.45,0,0,1,125.3,81.9Z"/><path class="cls-2" d="M110.61,106.27l19,3.23a36.1,36.1,0,0,0,.84-4.92l-19.05-3.24A17.09,17.09,0,0,1,110.61,106.27Z"/><path class="cls-5" d="M110.61,106.27l19,3.23a36.1,36.1,0,0,0,.84-4.92l-19.05-3.24A17.09,17.09,0,0,1,110.61,106.27Z"/><path class="cls-2" d="M106.67,89a17.53,17.53,0,0,1,2.89,4.08L125.3,81.9a37.45,37.45,0,0,0-2.89-4.07Z"/><path class="cls-5" d="M106.67,89a17.53,17.53,0,0,1,2.89,4.08L125.3,81.9a37.45,37.45,0,0,0-2.89-4.07Z"/><path class="cls-2" d="M102,116.34l11.17,15.75a37,37,0,0,0,4.07-2.9l-11.17-15.74A17.27,17.27,0,0,1,102,116.34Z"/><path class="cls-5" d="M102,116.34l11.17,15.75a37,37,0,0,0,4.07-2.9l-11.17-15.74A17.27,17.27,0,0,1,102,116.34Z"/><path class="cls-4" d="M92.68,98.86a2.34,2.34,0,0,0-.76.9,2.38,2.38,0,0,0-.28.76,2.56,2.56,0,0,0,.1,1.17,2.42,2.42,0,0,0,.34.73,3.31,3.31,0,0,0,.3.34L102,116.34a17.27,17.27,0,0,0,4.07-2.89l-6.41-9,10.93,1.86a17.09,17.09,0,0,0,.83-4.93l-10.92-1.85,9-6.41A17.53,17.53,0,0,0,106.67,89L93.13,98.61A2.46,2.46,0,0,0,92.68,98.86Z"/><path class="cls-6" d="M92.68,98.86a2.34,2.34,0,0,0-.76.9,2.38,2.38,0,0,0-.28.76,2.56,2.56,0,0,0,.1,1.17,2.42,2.42,0,0,0,.34.73,3.31,3.31,0,0,0,.3.34L102,116.34a17.27,17.27,0,0,0,4.07-2.89l-6.41-9,10.93,1.86a17.09,17.09,0,0,0,.83-4.93l-10.92-1.85,9-6.41A17.53,17.53,0,0,0,106.67,89L93.13,98.61A2.46,2.46,0,0,0,92.68,98.86Z"/><path class="cls-7" d="M208.18,100.94a13.13,13.13,0,0,0,13.1-13.13v-2.5H200.72a13.13,13.13,0,0,1-13.14,13.13H94.11a2.5,2.5,0,0,0,0,5h93.48a13.14,13.14,0,0,1,13.14,13.14h20.56v-2.5A13.14,13.14,0,0,0,208.18,100.94Z"/><circle class="cls-7" cx="94.16" cy="100.94" r="2.5"/><path class="cls-7" d="M174.79,20.32a13.14,13.14,0,0,0,0-18.55L173,0,158.45,14.54a13.12,13.12,0,0,1,0,18.57l-66,66,0,0,0,0h0a2.5,2.5,0,0,0,3.53,3.53L162,36.64a13.13,13.13,0,0,1,18.58,0L195.11,22.1l-1.77-1.76A13.11,13.11,0,0,0,174.79,20.32Z"/><circle class="cls-7" cx="94.16" cy="100.94" r="2.5"/><circle class="cls-7" cx="94.16" cy="100.94" r="2.5"/><circle class="cls-7" cx="94.16" cy="100.94" r="2.5"/><circle class="cls-7" cx="94.16" cy="100.94" r="2.5"/><path class="cls-8" d="M208.18,100.94a13.13,13.13,0,0,0,13.1-13.13v-2.5H200.72a13.13,13.13,0,0,1-13.14,13.13H94.11a2.5,2.5,0,0,0,0,5h93.48a13.14,13.14,0,0,1,13.14,13.14h20.56v-2.5A13.14,13.14,0,0,0,208.18,100.94Z"/><path class="cls-7" d="M180.56,165.24a13.15,13.15,0,0,1-18.58,0l-66-66,0,0,0,0h0a2.5,2.5,0,0,0-3.53,3.53l66.11,66.1a13.15,13.15,0,0,1,0,18.58L173,201.89l1.77-1.77a13.12,13.12,0,0,0,0-18.55,13.14,13.14,0,0,0,18.55,0l1.77-1.77Z"/><path class="cls-7" d="M174.79,20.32a13.14,13.14,0,0,0,0-18.55L173,0,158.45,14.54a13.12,13.12,0,0,1,0,18.57l-66,66,0,0,0,0h0a2.5,2.5,0,0,0,3.53,3.53L162,36.64a13.13,13.13,0,0,1,18.58,0L195.11,22.1l-1.77-1.76A13.11,13.11,0,0,0,174.79,20.32Z"/><circle class="cls-7" cx="94.16" cy="100.94" r="2.5"/></g></g></svg>